PathFileType	4	(X/Y/Z)	/Users/itak/Documents/Research/Walk-IL/dataset/trc/00573_00009.trc
DataRate	CameraRate	NumFrames	NumMarkers	Units	OrigDataRate	OrigDataStartFrame	OrigNumFrames
100.000000	100.000000	4	53	mm	100.000000	497	569
Frame#	Time	RPSI			LPSI			L3			STRN			T10			C7			CLAV			RBAK			LBAK			LSHO			LUPA			LAEL			LAOL			LWTS			LWPS			LFRA			LIFD			LHPS			LHTS			RSHO			RUPA			RAEL			RAOL			RWTS			RWPS			RFRA			RIFD			RHTS			RHPS			RBHD			LFHD			RFHD			LBHD			LHIP			RHIP			RASI			LASI			LKNE			LTHI			LANK			LTIP			LTOE			LMT1			LMT5			LHEE			RKNE			RTHI			RANK			RTIP			RTOE			RMT1			RMT5			RHEE			
		X1	Y1	Z1	X2	Y2	Z2	X3	Y3	Z3	X4	Y4	Z4	X5	Y5	Z5	X6	Y6	Z6	X7	Y7	Z7	X8	Y8	Z8	X9	Y9	Z9	X10	Y10	Z10	X11	Y11	Z11	X12	Y12	Z12	X13	Y13	Z13	X14	Y14	Z14	X15	Y15	Z15	X16	Y16	Z16	X17	Y17	Z17	X18	Y18	Z18	X19	Y19	Z19	X20	Y20	Z20	X21	Y21	Z21	X22	Y22	Z22	X23	Y23	Z23	X24	Y24	Z24	X25	Y25	Z25	X26	Y26	Z26	X27	Y27	Z27	X28	Y28	Z28	X29	Y29	Z29	X30	Y30	Z30	X31	Y31	Z31	X32	Y32	Z32	X33	Y33	Z33	X34	Y34	Z34	X35	Y35	Z35	X36	Y36	Z36	X37	Y37	Z37	X38	Y38	Z38	X39	Y39	Z39	X40	Y40	Z40	X41	Y41	Z41	X42	Y42	Z42	X43	Y43	Z43	X44	Y44	Z44	X45	Y45	Z45	X46	Y46	Z46	X47	Y47	Z47	X48	Y48	Z48	X49	Y49	Z49	X50	Y50	Z50	X51	Y51	Z51	X52	Y52	Z52	X53	Y53	Z53	

498	4.97	255.5828399658203	1014.447509765625	1096.245361328125	389.4348449707031	1020.756225585938	1096.3955078125	325.195068359375	1107.212036132812	1098.987915039062	338.4315795898438	1309.161865234375	1317.587768554688	325.4067077636719	1232.4375	1082.083740234375	310.6539916992188	1510.626220703125	1111.197387695312	335.341796875	1418.968872070312	1290.06591796875	224.2403564453125	1377.83203125	1055.286499023438	400.132568359375	1455.122802734375	1072.619262695312	490.9710083007812	1483.434814453125	1160.42041015625	567.1997680664062	1354.664184570312	1149.482666015625	591.0930786132812	1135.4951171875	1183.21337890625	534.55078125	1122.806030273438	1100.297485351562	546.77783203125	898.0206298828125	1289.746215820312	615.8999633789062	872.84814453125	1242.668701171875	599.1192016601562	1050.33447265625	1210.447143554688	548.7782592773438	726.8576049804688	1286.245727539062	608.2926025390625	813.3829956054688	1253.58251953125	568.52587890625	822.3976440429688	1308.754150390625	159.6011810302734	1473.6669921875	1181.036743164062	90.63529205322266	1406.424194335938	1170.945922851562	51.31598663330078	1116.5927734375	1179.38525390625	82.427734375	1096.94921875	1125.676391601562	88.52482604980469	903.7640380859375	1325.157592773438	23.59077835083008	880.1177368164062	1278.357788085938	45.66108322143555	1061.517822265625	1191.324096679688	89.57749938964844	731.2444458007812	1340.351806640625	73.74783325195312	813.369873046875	1356.47998046875	27.84390449523926	807.060302734375	1298.767822265625	245.8787078857422	1690.387329101562	1178.988403320312	392.4968872070312	1731.409057617188	1320.602294921875	248.6500549316406	1723.776489257812	1315.757080078125	411.1581420898438	1698.715698242188	1192.007202148438	522.6919555664062	945.9703369140625	1222.085327148438	135.2792663574219	947.0145874023438	1221.676147460938	194.0040740966797	981.5282592773438	1307.55029296875	471.4468078613281	974.233642578125	1302.474365234375	454.6257629394531	501.8240661621094	1241.344360351562	493.9951171875	666.115234375	1246.981323242188	438.9479370117188	35.61865997314453	1147.9140625	454.4852905273438	258.1219177246094	1172.573852539062	383.4074401855469	44.98880004882812	1361.503784179688	347.7958374023438	50.07468032836914	1289.016479492188	455.8684997558594	39.90417098999023	1269.630493164062	382.0630493164062	40.34965515136719	1080.632446289062	188.3227386474609	503.4900817871094	1256.219970703125	141.1453704833984	796.2777099609375	1263.43359375	209.2922973632812	44.10562515258789	1146.99462890625	204.0708618164062	360.2222595214844	1248.055419921875	249.9189605712891	44.51241683959961	1367.716186523438	291.9063110351562	42.85442352294922	1302.30517578125	189.9326324462891	45.05664825439453	1279.546630859375	260.8978576660156	34.96588516235352	1092.045166015625	
499	4.98	255.2871246337891	1014.684448242188	1097.491577148438	389.128173828125	1020.983520507812	1097.922241210938	324.8826904296875	1107.363891601562	1100.498413085938	337.7562255859375	1309.06396484375	1319.153198242188	325.1193542480469	1232.557739257812	1083.7529296875	310.0982360839844	1510.696655273438	1112.858032226562	334.7273864746094	1418.895141601562	1291.671020507812	223.7664489746094	1377.8994140625	1056.79248046875	399.5897216796875	1455.218505859375	1074.290405273438	490.4310913085938	1483.435546875	1162.121704101562	566.507080078125	1354.619018554688	1150.498168945312	590.2132568359375	1135.1787109375	1182.102416992188	533.1182861328125	1123.433715820312	1099.468505859375	546.7348022460938	895.8214721679688	1285.265991210938	615.746826171875	871.69189453125	1237.455688476562	598.4349365234375	1049.623413085938	1208.123413085938	548.54931640625	724.5409545898438	1278.964477539062	608.246337890625	811.9517822265625	1247.167602539062	568.5337524414062	819.7677612304688	1302.578857421875	159.0151977539062	1473.68310546875	1182.51513671875	90.04343414306641	1406.468872070312	1172.29150390625	50.71446990966797	1116.6005859375	1180.523681640625	81.90335845947266	1096.990600585938	1126.869750976562	87.54587554931641	903.499755859375	1326.04931640625	22.67001914978027	879.9951782226562	1279.050659179688	45.00700378417969	1061.518310546875	1192.40234375	88.34324645996094	730.9558715820312	1340.90771484375	72.56300354003906	813.0560913085938	1357.172973632812	26.83867263793945	806.9302368164062	1299.322387695312	245.2104797363281	1690.415405273438	1180.62939453125	391.8969116210938	1731.387573242188	1322.226318359375	248.031982421875	1723.772583007812	1317.340209960938	410.525146484375	1698.671997070312	1193.611328125	521.8837890625	945.88818359375	1223.991088867188	134.4884643554688	946.8705444335938	1222.719604492188	193.2397918701172	981.3327026367188	1308.61083984375	470.6485900878906	974.0515747070312	1304.06005859375	454.1900634765625	501.7157897949219	1241.734985351562	493.6360168457031	665.98486328125	1247.888305664062	438.9237670898438	35.6242561340332	1147.917236328125	454.3932189941406	258.2396545410156	1172.612670898438	383.402099609375	44.99785232543945	1361.495483398438	347.7791137695312	50.06658935546875	1289.006958007812	455.8364562988281	39.92153549194336	1269.624145507812	382.026611328125	40.35971832275391	1080.6357421875	188.0574493408203	503.3534240722656	1255.625122070312	140.6242523193359	796.1129150390625	1263.841552734375	209.384033203125	44.07057571411133	1146.970458984375	203.8099060058594	360.236328125	1247.43115234375	249.9173736572266	44.51828765869141	1367.716674804688	291.9322509765625	42.83595275878906	1302.298828125	189.9558868408203	45.05871963500977	1279.539428710938	260.9333190917969	34.91716766357422	1092.00927734375	
500	4.99	254.9828033447266	1014.901672363281	1098.689453125	388.8122253417969	1021.1826171875	1099.385009765625	324.5581970214844	1107.524169921875	1101.916259765625	337.08837890625	1308.957763671875	1320.660766601562	324.8224792480469	1232.708984375	1085.357788085938	309.575439453125	1510.777709960938	1114.496826171875	334.1381225585938	1418.8154296875	1293.248046875	223.316162109375	1378.005249023438	1058.26123046875	399.0787658691406	1455.334228515625	1075.9482421875	489.9198303222656	1483.440185546875	1163.826416015625	565.8599243164062	1354.596923828125	1151.515380859375	589.3903198242188	1134.91064453125	1180.976684570312	531.767333984375	1124.0927734375	1098.624877929688	546.7125244140625	893.8190307617188	1280.83837890625	615.58935546875	870.6534423828125	1232.308715820312	597.7884521484375	1048.981567382812	1205.814819335938	548.3175659179688	722.5866088867188	1271.761108398438	608.1924438476562	810.677001953125	1240.840454101562	568.4727172851562	817.1942138671875	1296.3583984375	158.4637145996094	1473.713623046875	1183.974609375	89.48706817626953	1406.538696289062	1173.607543945312	50.1093635559082	1116.63525390625	1181.580322265625	81.36222076416016	1097.064086914062	1127.9736328125	86.61351013183594	903.2988891601562	1326.887084960938	21.77762794494629	879.9225463867188	1279.704345703125	44.34881210327148	1061.531372070312	1193.403930664062	87.19805908203125	730.7421875	1341.462524414062	71.43809509277344	812.8236694335938	1357.8427734375	25.91762351989746	806.8392944335938	1299.852905273438	244.5754852294922	1690.446655273438	1182.236206054688	391.3344116210938	1731.37890625	1323.803588867188	247.4516448974609	1723.792358398438	1318.881591796875	409.9302062988281	1698.620849609375	1195.179443359375	521.3405151367188	945.9658813476562	1225.827270507812	133.7075500488281	946.7588500976562	1223.722900390625	192.4851379394531	981.1693725585938	1309.63134765625	469.8650207519531	973.8568725585938	1305.580810546875	453.7403869628906	501.6246337890625	1242.057739257812	493.2263488769531	665.8359985351562	1248.77197265625	438.9015197753906	35.62810516357422	1147.917358398438	454.2833251953125	258.3545532226562	1172.62646484375	383.3993225097656	45.00851058959961	1361.4833984375	347.762451171875	50.05923080444336	1288.995849609375	455.8064575195312	39.93888473510742	1269.616577148438	381.98828125	40.36809921264648	1080.639404296875	187.8746643066406	503.2473754882812	1255.015625	140.1506195068359	795.9232177734375	1264.263061523438	209.4815826416016	44.05369567871094	1146.955688476562	203.5372009277344	360.2731323242188	1246.829833984375	249.9162750244141	44.52062225341797	1367.7177734375	291.9559326171875	42.82016372680664	1302.300170898438	189.9798583984375	45.05860137939453	1279.531372070312	260.9821472167969	34.88613510131836	1091.978149414062	
501	5	254.6653594970703	1015.106140136719	1099.849975585938	388.4871826171875	1021.356689453125	1100.7861328125	324.2222595214844	1107.688598632812	1103.259887695312	336.4328002929688	1308.848510742188	1322.114501953125	324.5148620605469	1232.887329101562	1086.894897460938	309.083251953125	1510.866333007812	1116.10791015625	333.5785217285156	1418.730346679688	1294.794677734375	222.8915252685547	1378.141845703125	1059.691040039062	398.5948181152344	1455.468994140625	1077.588500976562	489.4372253417969	1483.452514648438	1165.52099609375	565.2595825195312	1354.599853515625	1152.522094726562	588.6233520507812	1134.692138671875	1179.850830078125	530.4990234375	1124.78173828125	1097.7724609375	546.701171875	892.0108642578125	1276.482177734375	615.4275512695312	869.7330932617188	1227.251586914062	597.177978515625	1048.414794921875	1203.538330078125	548.1344604492188	720.9403686523438	1264.569091796875	608.1284790039062	809.5597534179688	1234.63720703125	568.3607177734375	814.7385864257812	1290.163330078125	157.9488830566406	1473.755615234375	1185.410522460938	88.96659088134766	1406.627197265625	1174.892822265625	49.49861145019531	1116.697021484375	1182.561767578125	80.79795837402344	1097.167358398438	1128.989624023438	85.72635650634766	903.159423828125	1327.6708984375	20.91554260253906	879.8950805664062	1280.328735351562	43.68974304199219	1061.559448242188	1194.332641601562	86.148681640625	730.5953979492188	1342.01806640625	70.38236236572266	812.6644287109375	1358.493774414062	25.06313896179199	806.780029296875	1300.3740234375	243.9786529541016	1690.4833984375	1183.802856445312	390.8052978515625	1731.379150390625	1325.334838867188	246.90771484375	1723.835693359375	1320.3857421875	409.373779296875	1698.56591796875	1196.712768554688	521.0468139648438	946.2034301757812	1227.641967773438	132.94384765625	946.676513671875	1224.696166992188	191.7475738525391	981.035400390625	1310.621948242188	469.090576171875	973.6500244140625	1307.03515625	453.2913208007812	501.5523986816406	1242.304565429688	492.7712707519531	665.671142578125	1249.619506835938	438.8803100585938	35.63192367553711	1147.914672851562	454.1517639160156	258.4625549316406	1172.614990234375	383.3981628417969	45.02017974853516	1361.468383789062	347.7455749511719	50.05154418945312	1288.984375	455.7787170410156	39.95577239990234	1269.607788085938	381.9474487304688	40.37482452392578	1080.644165039062	187.7375946044922	503.1748962402344	1254.371948242188	139.7388916015625	795.7365112304688	1264.691528320312	209.5696716308594	44.04767227172852	1146.946411132812	203.2415924072266	360.3333435058594	1246.236206054688	249.9123687744141	44.52153778076172	1367.716186523438	291.975341796875	42.80915069580078	1302.306640625	189.9996643066406	45.05588912963867	1279.5224609375	261.0340270996094	34.86470031738281	1091.952270507812	
